<svg width="24" height="24" xmlns="http://www.w3.org/2000/svg"><path d="M12 24c-1.105 0-2.169-.143-3.193-.429a12.172 12.172 0 0 1-2.871-1.207c-.89-.519-1.7-1.143-2.429-1.871a11.883 11.883 0 0 1-1.871-2.429 12.172 12.172 0 0 1-1.207-2.871A11.823 11.823 0 0 1 0 12c0-1.105.143-2.169.429-3.193a12.172 12.172 0 0 1 1.207-2.871c.519-.89 1.143-1.7 1.871-2.429A12.087 12.087 0 0 1 5.936 1.63C6.826 1.105 7.783.702 8.807.42A12.01 12.01 0 0 1 12 0c1.105 0 2.169.14 3.193.421 1.024.281 1.98.684 2.871 1.208a12.087 12.087 0 0 1 4.307 4.307c.524.89.927 1.847 1.208 2.871A12.01 12.01 0 0 1 24 12c0 1.105-.14 2.169-.421 3.193a11.788 11.788 0 0 1-1.208 2.871c-.523.89-1.15 1.7-1.878 2.429a11.883 11.883 0 0 1-2.429 1.871c-.89.52-1.847.922-2.871 1.207A11.823 11.823 0 0 1 12 24zm0-22.4c-.962 0-1.883.124-2.764.371A10.429 10.429 0 0 0 4.65 4.65a10.226 10.226 0 0 0-1.621 2.107c-.448.772-.798 1.6-1.05 2.486A10.012 10.012 0 0 0 1.6 12c0 .952.126 1.871.379 2.757.252.886.602 1.714 1.05 2.486.447.771.988 1.474 1.621 2.107a10.226 10.226 0 0 0 2.107 1.621c.772.448 1.598.798 2.479 1.05.88.253 1.8.379 2.757.379.957 0 1.878-.126 2.764-.379a10.861 10.861 0 0 0 2.486-1.05 10.226 10.226 0 0 0 2.107-1.621 10.429 10.429 0 0 0 2.679-4.586c.247-.88.371-1.8.371-2.757 0-.957-.124-1.878-.371-2.764A10.429 10.429 0 0 0 19.35 4.65a10.429 10.429 0 0 0-4.593-2.679A10.192 10.192 0 0 0 12 1.6zm-.8 8h1.6v8h-1.6v-8zm0-3.2h1.6V8h-1.6V6.4z" fill="#777" fill-rule="nonzero"/></svg>