<svg width="24" height="24" xmlns="http://www.w3.org/2000/svg"><path d="M12 6v6.429l4.272 4.299-1.044 1.044-4.728-4.7V6H12zm6 1.5h3.482a10.598 10.598 0 0 0-3.877-4.373 10.569 10.569 0 0 0-2.665-1.205A10.31 10.31 0 0 0 12 1.5c-.964 0-1.893.125-2.786.375s-1.727.603-2.504 1.058A10.537 10.537 0 0 0 4.58 4.58a10.536 10.536 0 0 0-1.647 2.13 10.558 10.558 0 0 0-1.058 2.504c-.25.893-.375 1.822-.375 2.786s.125 1.893.375 2.786.603 1.727 1.058 2.504a10.537 10.537 0 0 0 1.647 2.13 10.536 10.536 0 0 0 2.13 1.647c.777.455 1.611.808 2.504 1.058s1.822.375 2.786.375c1.17 0 2.3-.19 3.388-.57a10.59 10.59 0 0 0 2.967-1.586 10.686 10.686 0 0 0 2.31-2.431 10.185 10.185 0 0 0 1.447-3.114l1.446.402a11.703 11.703 0 0 1-1.654 3.562 12.025 12.025 0 0 1-6.027 4.594A11.756 11.756 0 0 1 12 24c-1.098 0-2.16-.143-3.188-.429a12.139 12.139 0 0 1-2.872-1.205 11.9 11.9 0 0 1-2.431-1.875 11.9 11.9 0 0 1-1.875-2.43 12.168 12.168 0 0 1-1.205-2.867A11.787 11.787 0 0 1 0 12.007c0-1.103.143-2.168.429-3.195A12.139 12.139 0 0 1 1.634 5.94a11.9 11.9 0 0 1 1.875-2.431 11.9 11.9 0 0 1 2.43-1.875c.89-.518 1.844-.92 2.867-1.205A11.787 11.787 0 0 1 11.993 0c1.103 0 2.17.145 3.201.435a12.11 12.11 0 0 1 5.39 3.188c.75.763 1.39 1.627 1.916 2.591V3H24v6h-6V7.5z" fill="#777" fill-rule="nonzero"/></svg>