<svg width="20" height="24" xmlns="http://www.w3.org/2000/svg"><path d="M3.658 22.5a.838.838 0 0 1-.604-.245.818.818 0 0 1-.253-.612c0-.184.048-.347.145-.49a.874.874 0 0 1 .421-.321 7.58 7.58 0 0 0 1.845-1.11 8.917 8.917 0 0 0 1.477-1.53c.428-.567.803-1.18 1.125-1.837.321-.659.589-1.324.803-1.998.062-.184.161-.337.299-.459.138-.122.319-.184.543-.184.225 0 .421.087.59.26a.85.85 0 0 1 .252.613c0 .367-.107.819-.321 1.354-.215.536-.5 1.095-.858 1.676A18.065 18.065 0 0 1 7.89 19.37c-.464.587-.941 1.11-1.43 1.569-.49.459-.98.834-1.47 1.125-.49.29-.934.436-1.332.436zM7.73 24a.825.825 0 0 1-.605-.253.825.825 0 0 1-.253-.604c0-.296.128-.536.383-.72a8.035 8.035 0 0 0 1.01-.872c.357-.357.712-.755 1.064-1.194.352-.439.694-.9 1.026-1.385.331-.485.622-.975.872-1.47.25-.494.449-.976.597-1.446.148-.47.222-.908.222-1.316 0-.49-.036-.908-.107-1.255-.072-.347-.204-.63-.398-.85-.194-.22-.462-.38-.804-.482-.342-.102-.773-.153-1.293-.153-.357 0-.666.074-.926.222-.26.148-.487.344-.681.59-.194.244-.378.53-.551.856l-.505 1.056c-.184.368-.383.745-.597 1.133-.215.388-.47.76-.766 1.117a6.664 6.664 0 0 1-1.056 1.01 5.99 5.99 0 0 1-1.454.812c-.122.04-.235.061-.337.061a.825.825 0 0 1-.604-.252.825.825 0 0 1-.253-.605c0-.184.051-.344.153-.482a.968.968 0 0 1 .398-.314 6.28 6.28 0 0 0 1.661-1.14 5.192 5.192 0 0 0 1.156-1.66c.224-.521.454-1.029.688-1.524.235-.495.513-.936.835-1.324a3.636 3.636 0 0 1 1.155-.926c.45-.23 1.01-.344 1.684-.344 1.52 0 2.62.372 3.298 1.117.679.745 1.018 1.857 1.018 3.337 0 .47-.087.984-.26 1.546-.173.56-.4 1.14-.681 1.737-.28.597-.607 1.196-.98 1.798a17.555 17.555 0 0 1-1.178 1.684c-.414.52-.834.985-1.263 1.393a7.66 7.66 0 0 1-1.21.964.703.703 0 0 1-.458.138zm5.142 0a.825.825 0 0 1-.604-.253.825.825 0 0 1-.253-.604c0-.133.026-.253.077-.36.05-.107.127-.212.23-.314a9.47 9.47 0 0 0 1.385-1.691c.413-.638.773-1.314 1.079-2.028.306-.714.54-1.444.704-2.189.163-.745.245-1.47.245-2.173 0-.735-.14-1.452-.421-2.15a6.168 6.168 0 0 0-1.156-1.86 5.827 5.827 0 0 0-1.73-1.31 4.693 4.693 0 0 0-2.127-.497c-.837 0-1.523.057-2.059.169-.535.112-.977.27-1.324.474a2.82 2.82 0 0 0-.85.75c-.219.296-.435.628-.65.995-.214.368-.456.773-.727 1.217-.27.444-.625.91-1.063 1.4a7.938 7.938 0 0 1-1.133 1.095 4.136 4.136 0 0 1-1.393.727.247.247 0 0 1-.107.03H.888a.855.855 0 0 1-.628-.26.838.838 0 0 1-.26-.612c0-.204.061-.372.184-.505.122-.133.27-.235.444-.306.52-.204.951-.454 1.293-.75.342-.296.635-.625.88-.987.245-.363.47-.74.673-1.133.205-.393.421-.78.651-1.163.23-.383.5-.748.811-1.095a4.331 4.331 0 0 1 1.171-.903c.47-.255 1.044-.461 1.722-.62.679-.158 1.503-.237 2.472-.237a6.3 6.3 0 0 1 1.913.291 7.118 7.118 0 0 1 1.715.804c.53.341 1.012.75 1.446 1.224.434.475.806.992 1.117 1.554.312.56.549 1.153.712 1.775a7.51 7.51 0 0 1 .245 1.913c0 .46-.046.97-.138 1.531a15.507 15.507 0 0 1-.398 1.753 18.33 18.33 0 0 1-.627 1.821 16.862 16.862 0 0 1-.812 1.73 10.22 10.22 0 0 1-.971 1.484 5.726 5.726 0 0 1-1.095 1.08 1.549 1.549 0 0 1-.26.13.755.755 0 0 1-.276.053zm5.97-13.714c-.347 0-.607-.164-.78-.49-.848-1.54-1.914-2.702-3.2-3.482-1.285-.78-2.816-1.171-4.592-1.171-.724 0-1.415.038-2.074.115a8.177 8.177 0 0 0-1.867.436 6.017 6.017 0 0 0-1.638.91c-.505.393-.967.901-1.385 1.524-.092.132-.196.24-.314.321a.745.745 0 0 1-.436.122.825.825 0 0 1-.604-.252.825.825 0 0 1-.253-.605c0-.132.036-.27.107-.413A5.736 5.736 0 0 1 3.36 5.403a8.067 8.067 0 0 1 2.089-1.186c.755-.291 1.548-.495 2.38-.612a17.463 17.463 0 0 1 2.441-.176c.97 0 1.926.122 2.87.367.944.245 1.832.605 2.664 1.079a9.561 9.561 0 0 1 2.234 1.76 8.346 8.346 0 0 1 1.584 2.426c.051.133.077.255.077.368a.825.825 0 0 1-.253.604.825.825 0 0 1-.604.253zm-1.714-6.812a.923.923 0 0 1-.414-.107 16.483 16.483 0 0 0-3.122-1.224 12.498 12.498 0 0 0-3.322-.429c-1.01 0-1.972.107-2.885.322-.913.214-1.829.52-2.747.918a.819.819 0 0 1-.383.092.8.8 0 0 1-.597-.253.838.838 0 0 1-.245-.604c0-.255.14-.487.421-.697.28-.209.643-.395 1.087-.558A11.32 11.32 0 0 1 6.383.513a23.105 23.105 0 0 1 2.954-.46C9.755.019 10.07 0 10.286 0c.214 0 .556.026 1.025.077.47.05.99.127 1.561.23.572.101 1.161.226 1.768.374s1.158.319 1.653.513c.495.194.9.408 1.217.643.317.234.475.495.475.78a.825.825 0 0 1-.253.605.825.825 0 0 1-.604.252z" fill="#777" fill-rule="nonzero"/></svg>