<svg width="24" height="24" xmlns="http://www.w3.org/2000/svg"><path d="M11.223 15.562a8.304 8.304 0 0 1 2.163 1.246 8.19 8.19 0 0 1 1.66 1.788c.46.674.818 1.406 1.072 2.196.255.79.382 1.61.382 2.458V24H15v-.75c0-.929-.179-1.804-.536-2.625a6.872 6.872 0 0 0-1.446-2.143 6.872 6.872 0 0 0-2.143-1.446A6.512 6.512 0 0 0 8.25 16.5c-.929 0-1.804.179-2.625.536a6.872 6.872 0 0 0-2.143 1.446 6.872 6.872 0 0 0-1.446 2.143A6.512 6.512 0 0 0 1.5 23.25V24H0v-.75c0-.848.127-1.667.382-2.458a8.499 8.499 0 0 1 1.071-2.196 8.19 8.19 0 0 1 1.66-1.788 8.304 8.304 0 0 1 2.164-1.246 4.936 4.936 0 0 1-.958-.843 5.216 5.216 0 0 1-.71-1.038 5.626 5.626 0 0 1-.448-1.172c-.107-.41-.161-.83-.161-1.259 0-.723.138-1.404.415-2.042A5.331 5.331 0 0 1 4.54 7.54a5.332 5.332 0 0 1 1.668-1.125A5.079 5.079 0 0 1 8.25 6c.723 0 1.404.138 2.042.415A5.331 5.331 0 0 1 11.96 7.54a5.332 5.332 0 0 1 1.125 1.668c.277.638.415 1.319.415 2.042 0 .429-.054.848-.16 1.259-.108.41-.257.801-.45 1.172-.191.37-.428.716-.71 1.038-.28.321-.6.602-.957.843zM8.25 15c.518 0 1.002-.098 1.453-.295A3.813 3.813 0 0 0 11.7 12.71c.2-.456.301-.942.301-1.46s-.1-1.002-.301-1.453a3.91 3.91 0 0 0-.81-1.185 3.91 3.91 0 0 0-1.186-.81A3.53 3.53 0 0 0 8.25 7.5c-.518 0-1.004.1-1.46.301a3.813 3.813 0 0 0-1.996 1.996c-.196.45-.294.935-.294 1.453s.098 1.004.295 1.46c.196.455.464.852.803 1.192.34.34.737.607 1.192.803.456.197.942.295 1.46.295zM24 0v12h-3l-4.5 4.5V12H15v-1.5h3v2.384l2.384-2.384H22.5v-9h-15v2.692c-.25.036-.502.078-.757.127-.254.05-.502.119-.743.208V0h18z" fill="#777" fill-rule="nonzero"/></svg>