<svg xmlns="http://www.w3.org/2000/svg" width="24" height="24"><path d="M 20.16 0.66 C 20.6 0.22 21.13 0 21.75 0 C 22.37 0 22.9 0.22 23.34 0.66 C 23.78 1.1 24 1.63 24 2.25 C 24 2.87 23.78 3.4 23.34 3.84 C 22.9 4.28 22.37 4.5 21.75 4.5 C 21.41 4.5 21.08 4.42 20.76 4.26 L 15.66 9.375 C 16.22 10.135 16.5 11.2 16.5 12 C 16.5 12.8 16.28 13.565 15.84 14.295 L 19.17 17.115 C 19.71 16.705 20.18 16.5 21 16.5 C 21.82 16.5 22.525 16.795 23.115 17.385 C 23.705 17.975 24 18.68 24 19.5 C 24 20.32 23.705 21.025 23.115 21.615 C 22.525 22.205 21.82 22.5 21 22.5 C 20.18 22.5 19.475 22.205 18.885 21.615 C 18.295 21.025 18 20.32 18 19.5 C 18 19.12 18.095 18.715 18.285 18.285 L 14.91 15.42 C 14.06 16.14 13.24 16.5 12 16.5 C 10.76 16.5 9.7 16.06 8.82 15.18 C 7.94 14.3 7.5 13.24 7.5 12 C 7.5 11.93 7.507 11.832 7.522 11.707 C 7.538 11.582 7.545 11.51 7.545 11.49 L 2.58 10.08 C 2.3 10.36 1.91 10.5 1.5 10.5 C 1.09 10.5 0.738 10.352 0.443 10.057 C 0.148 9.762 0 9.41 0 9 C 0 8.59 0.148 8.238 0.443 7.943 C 0.737 7.648 1.16 7.5 1.5 7.5 C 1.84 7.5 2.14 7.61 2.4 7.83 C 2.66 8.05 2.83 8.33 2.91 8.67 L 7.965 10.125 C 8.335 9.345 8.88 8.712 9.6 8.227 C 10.32 7.743 11.03 7.5 12 7.5 C 12.97 7.5 13.845 7.78 14.625 8.34 L 19.74 3.24 C 19.58 2.92 19.5 2.59 19.5 2.25 C 19.5 1.63 19.72 1.1 20.16 0.66 Z" fill="rgba(119,119,119,1)"></path></svg>