<svg xmlns="http://www.w3.org/2000/svg" xmlns:xlink="http://www.w3.org/1999/xlink" width="24" height="24"><path d="M 15.792 5.703 C 15.814 5.744 15.825 5.774 15.825 5.795 C 15.825 5.815 15.814 5.846 15.792 5.887 L 11.707 10.778 C 11.641 10.839 11.614 10.87 11.559 10.87 C 11.505 10.87 11.45 10.844 11.395 10.793 L 9.082 8.714 L 9.033 8.668 C 9.011 8.628 9 8.587 9 8.577 C 9 8.567 9.011 8.541 9.033 8.5 L 9.066 8.47 C 9.372 8.164 9.612 7.93 9.787 7.767 C 9.853 7.706 9.875 7.675 9.919 7.675 C 9.962 7.675 10.017 7.706 10.083 7.767 L 11.395 8.959 L 14.677 5.031 C 14.698 5.01 14.742 5 14.775 5 C 14.808 5 14.846 5.01 14.89 5.031 Z" fill="rgba(119,119,119,1)"></path><g><defs><path d="M 7 14 L 7 24 L 12 22 L 17 24 L 17 14 L 12 15.5 Z" id="a1006z"></path><clipPath id="a1007z"><use xlink:href="#a1006z"></use></clipPath></defs><use xlink:href="#a1006z" fill="transparent" clip-path="url(#a1007z)" stroke-width="4" stroke="rgba(119, 119, 119, 1.00)" stroke-linecap="square" stroke-linejoin="round"></use></g><g><defs><path d="M 12 0 C 16.418 0 20 3.582 20 8 C 20 12.418 16.418 16 12 16 C 7.582 16 4 12.418 4 8 C 4 3.582 7.582 0 12 0 Z" id="a1008z"></path><clipPath id="a1009z"><use xlink:href="#a1008z"></use></clipPath></defs><use xlink:href="#a1008z" fill="transparent" clip-path="url(#a1009z)" stroke-width="4" stroke="rgba(119, 119, 119, 1.00)"></use></g></svg>