<?xml version="1.0" encoding="UTF-8"?>
<svg width="30px" height="30px" viewBox="0 0 30 30" version="1.1" xmlns="http://www.w3.org/2000/svg" xmlns:xlink="http://www.w3.org/1999/xlink">
    <defs></defs>
    <g id="Call-Center-Returning-User" stroke="none" stroke-width="1" fill="none" fill-rule="evenodd">
        <g id="6" transform="translate(-192.000000, -26.000000)" fill="#85BF43">
            <path d="M203.106334,42.9038391 C201.978755,42.1741223 200.63176,41.75 199.184874,41.75 C195.216778,41.75 192,44.9399712 192,48.875 C192,52.8100288 195.216778,56 199.184874,56 C203.15297,56 206.369748,52.8100288 206.369748,48.875 C206.369748,47.501483 205.977832,46.21874 205.298846,45.1307446 L211.165781,39.2638098 C212.235339,39.8904281 213.482888,40.25 214.815126,40.25 C218.783222,40.25 222,37.0600288 222,33.125 C222,29.1899712 218.783222,26 214.815126,26 C210.84703,26 207.630252,29.1899712 207.630252,33.125 C207.630252,34.612004 208.089608,35.9926138 208.875278,37.1348954 L203.106334,42.9038391 Z" id="icon_connectorLogo"></path>
        </g>
    </g>
</svg>