<svg width="24" height="24" xmlns="http://www.w3.org/2000/svg"><path d="M24 18.429V24h-6v-3h-3v-3h-3v-2.424a8.003 8.003 0 0 1-3.75.924 8.076 8.076 0 0 1-2.19-.295 8.222 8.222 0 0 1-3.643-2.123A8.222 8.222 0 0 1 .295 10.44 8.076 8.076 0 0 1 0 8.25c0-.759.098-1.489.295-2.19a8.222 8.222 0 0 1 2.123-3.643A8.222 8.222 0 0 1 6.06.295C6.761.098 7.491 0 8.25 0c.759 0 1.489.098 2.19.295a8.222 8.222 0 0 1 3.643 2.123 8.222 8.222 0 0 1 2.122 3.642 8.076 8.076 0 0 1 .201 3.375 8.36 8.36 0 0 1-.268 1.145L24 18.43zm-1.5.642l-8.09-8.089c.18-.446.322-.895.43-1.346a6.512 6.512 0 0 0-.375-4.011 6.872 6.872 0 0 0-1.447-2.143 6.872 6.872 0 0 0-2.143-1.446A6.512 6.512 0 0 0 8.25 1.5c-.929 0-1.804.179-2.625.536a6.872 6.872 0 0 0-2.143 1.446 6.872 6.872 0 0 0-1.446 2.143A6.512 6.512 0 0 0 1.5 8.25c0 .929.179 1.804.536 2.625.357.821.839 1.536 1.446 2.143a6.872 6.872 0 0 0 2.143 1.446A6.512 6.512 0 0 0 8.25 15c.759 0 1.504-.13 2.237-.388a6.384 6.384 0 0 0 1.968-1.112H13.5v3h3v3h3v3h3v-3.429zM6 4.5c.214 0 .41.038.59.114.178.076.336.183.475.321.138.139.245.297.321.476.076.178.114.375.114.589 0 .214-.038.41-.114.59a1.417 1.417 0 0 1-.321.468 1.654 1.654 0 0 1-.476.321A1.42 1.42 0 0 1 6 7.5c-.214 0-.41-.04-.59-.12a1.564 1.564 0 0 1-.79-.79A1.42 1.42 0 0 1 4.5 6c0-.214.04-.41.12-.59.08-.178.188-.336.322-.475.134-.138.29-.245.469-.321.178-.076.375-.114.589-.114z" fill="#777" fill-rule="nonzero"/></svg>