<?xml version="1.0" encoding="UTF-8"?>
<svg width="23px" height="27px" viewBox="0 0 23 27" version="1.1" xmlns="http://www.w3.org/2000/svg" xmlns:xlink="http://www.w3.org/1999/xlink">
    <defs></defs>
    <g id="Call-Center-Returning-User" stroke="none" stroke-width="1" fill="none" fill-rule="evenodd">
        <g id="6" transform="translate(-16.000000, -913.000000)">
            <g id="ribbon" transform="translate(16.000000, 913.000000)">
                <path d="M11,14 C12.9444444,14 14.5972222,13.3194444 15.9583333,11.9583333 C17.3194444,10.5972222 18,8.94444444 18,7 C18,5.05555556 17.3194444,3.40277778 15.9583333,2.04166667 C14.5972222,0.680555556 12.9444444,0 11,0 C9.05555556,0 7.40277778,0.680555556 6.04166667,2.04166667 C4.68055556,3.40277778 4,5.05555556 4,7 C4,8.94444444 4.68055556,10.5972222 6.04166667,11.9583333 C7.40277778,13.3194444 9.05555556,14 11,14 L11,14 Z" id="Path-Copy-5" fill="#85BF43"></path>
                <path d="M11.289062,2.34375 C12.734374,2.34375 13.955078,2.841797 14.951171,3.837891 C15.947265,4.833984 16.445312,6.054688 16.445312,7.5 C16.445312,8.945312 15.947265,10.166016 14.951171,11.162109 C13.955078,12.158203 12.734374,12.65625 11.289062,12.65625 C9.84375,12.65625 8.623046,12.158203 7.626953,11.162109 C6.630859,10.166016 6.132812,8.945312 6.132812,7.5 C6.132812,6.054688 6.630859,4.833984 7.626953,3.837891 C8.623046,2.841797 9.84375,2.34375 11.289062,2.34375 L11.289062,2.34375 Z M11.289062,0 C13.359374,0 15.126953,0.732422 16.591796,2.197266 C18.05664,3.662109 18.789062,5.429688 18.789062,7.5 C18.789062,9.570312 18.05664,11.337891 16.591796,12.802734 C15.126953,14.267578 13.359374,15 11.289062,15 C9.21875,15 7.451171,14.267578 5.986328,12.802734 C4.521484,11.337891 3.789062,9.570312 3.789062,7.5 C3.789062,5.429688 4.521484,3.662109 5.986328,2.197266 C7.451171,0.732422 9.21875,0 11.289062,0 L11.289062,0 Z M4.902343,13.007812 C6.582031,14.960938 8.710937,15.9375 11.289062,15.9375 C12.03125,15.9375 12.695312,15.859375 13.28125,15.703125 L11.289062,20.039062 L8.476562,26.25 L5.664062,21.5625 L0.039062,21.5625 L4.902343,13.007812 Z M17.675781,13.007812 L22.539062,21.5625 L16.914062,21.5625 L14.101562,26.25 L11.757812,21.09375 L14.394531,15.351562 C15.644531,14.84375 16.738281,14.0625 17.675781,13.007812 L17.675781,13.007812 Z" id="Shape-Copy-5" fill="#757575"></path>
            </g>
        </g>
    </g>
</svg>