<svg xmlns="http://www.w3.org/2000/svg" width="24" height="24"><path d="M 0 0 L 0.924 0 L 0.924 0.924 L 0 0.924 Z" fill="#E99A3B"></path><path d="M 0 0.924 L 0.924 0.924 L 0.924 1.848 L 0 1.848 Z" fill="#E99A3B"></path><path d="M 0 1.848 L 0.924 1.848 L 0.924 2.772 L 0 2.772 Z" fill="#E99A3B"></path><path d="M 0 2.772 L 0.924 2.772 L 0.924 3.696 L 0 3.696 Z" fill="#E99A3B"></path><path d="M 0 3.696 L 0.924 3.696 L 0.924 4.62 L 0 4.62 Z" fill="#E99A3B"></path><path d="M 0 4.62 L 0.924 4.62 L 0.924 5.544 L 0 5.544 Z" fill="#E99A3B"></path><path d="M 0 5.544 L 0.924 5.544 L 0.924 6.468 L 0 6.468 Z" fill="#E99A3B"></path><path d="M 0 8.316 L 0.924 8.316 L 0.924 9.24 L 0 9.24 Z" fill="#E99A3B"></path><path d="M 0 16.632 L 0.924 16.632 L 0.924 17.556 L 0 17.556 Z" fill="#E99A3B"></path><path d="M 0 17.556 L 0.924 17.556 L 0.924 18.48 L 0 18.48 Z" fill="#E99A3B"></path><path d="M 0 18.48 L 0.924 18.48 L 0.924 19.404 L 0 19.404 Z" fill="#E99A3B"></path><path d="M 0 19.404 L 0.924 19.404 L 0.924 20.328 L 0 20.328 Z" fill="#E99A3B"></path><path d="M 0 20.328 L 0.924 20.328 L 0.924 21.252 L 0 21.252 Z" fill="#E99A3B"></path><path d="M 0 21.252 L 0.924 21.252 L 0.924 22.176 L 0 22.176 Z" fill="#E99A3B"></path><path d="M 0 22.176 L 0.924 22.176 L 0.924 23.1 L 0 23.1 Z" fill="#E99A3B"></path><path d="M 0.924 0 L 1.848 0 L 1.848 0.924 L 0.924 0.924 Z" fill="#E99A3B"></path><path d="M 0.924 5.544 L 1.848 5.544 L 1.848 6.468 L 0.924 6.468 Z" fill="#E99A3B"></path><path d="M 0.924 7.392 L 1.848 7.392 L 1.848 8.316 L 0.924 8.316 Z" fill="#E99A3B"></path><path d="M 0.924 8.316 L 1.848 8.316 L 1.848 9.24 L 0.924 9.24 Z" fill="#E99A3B"></path><path d="M 0.924 9.24 L 1.848 9.24 L 1.848 10.164 L 0.924 10.164 Z" fill="#E99A3B"></path><path d="M 0.924 12.012 L 1.848 12.012 L 1.848 12.936 L 0.924 12.936 Z" fill="#E99A3B"></path><path d="M 0.924 13.86 L 1.848 13.86 L 1.848 14.784 L 0.924 14.784 Z" fill="#E99A3B"></path><path d="M 0.924 14.784 L 1.848 14.784 L 1.848 15.708 L 0.924 15.708 Z" fill="#E99A3B"></path><path d="M 0.924 16.632 L 1.848 16.632 L 1.848 17.556 L 0.924 17.556 Z" fill="#E99A3B"></path><path d="M 0.924 22.176 L 1.848 22.176 L 1.848 23.1 L 0.924 23.1 Z" fill="#E99A3B"></path><path d="M 1.848 0 L 2.772 0 L 2.772 0.924 L 1.848 0.924 Z" fill="#E99A3B"></path><path d="M 1.848 1.848 L 2.772 1.848 L 2.772 2.772 L 1.848 2.772 Z" fill="#E99A3B"></path><path d="M 1.848 2.772 L 2.772 2.772 L 2.772 3.696 L 1.848 3.696 Z" fill="#E99A3B"></path><path d="M 1.848 3.696 L 2.772 3.696 L 2.772 4.62 L 1.848 4.62 Z" fill="#E99A3B"></path><path d="M 1.848 5.544 L 2.772 5.544 L 2.772 6.468 L 1.848 6.468 Z" fill="#E99A3B"></path><path d="M 1.848 8.316 L 2.772 8.316 L 2.772 9.24 L 1.848 9.24 Z" fill="#E99A3B"></path><path d="M 1.848 9.24 L 2.772 9.24 L 2.772 10.164 L 1.848 10.164 Z" fill="#E99A3B"></path><path d="M 1.848 10.164 L 2.772 10.164 L 2.772 11.088 L 1.848 11.088 Z" fill="#E99A3B"></path><path d="M 1.848 11.088 L 2.772 11.088 L 2.772 12.012 L 1.848 12.012 Z" fill="#E99A3B"></path><path d="M 1.848 12.012 L 2.772 12.012 L 2.772 12.936 L 1.848 12.936 Z" fill="#E99A3B"></path><path d="M 1.848 14.784 L 2.772 14.784 L 2.772 15.708 L 1.848 15.708 Z" fill="#E99A3B"></path><path d="M 1.848 16.632 L 2.772 16.632 L 2.772 17.556 L 1.848 17.556 Z" fill="#E99A3B"></path><path d="M 1.848 18.48 L 2.772 18.48 L 2.772 19.404 L 1.848 19.404 Z" fill="#E99A3B"></path><path d="M 1.848 19.404 L 2.772 19.404 L 2.772 20.328 L 1.848 20.328 Z" fill="#E99A3B"></path><path d="M 1.848 20.328 L 2.772 20.328 L 2.772 21.252 L 1.848 21.252 Z" fill="#E99A3B"></path><path d="M 1.848 22.176 L 2.772 22.176 L 2.772 23.1 L 1.848 23.1 Z" fill="#E99A3B"></path><path d="M 2.772 0 L 3.696 0 L 3.696 0.924 L 2.772 0.924 Z" fill="#E99A3B"></path><path d="M 2.772 1.848 L 3.696 1.848 L 3.696 2.772 L 2.772 2.772 Z" fill="#E99A3B"></path><path d="M 2.772 2.772 L 3.696 2.772 L 3.696 3.696 L 2.772 3.696 Z" fill="#E99A3B"></path><path d="M 2.772 3.696 L 3.696 3.696 L 3.696 4.62 L 2.772 4.62 Z" fill="#E99A3B"></path><path d="M 2.772 5.544 L 3.696 5.544 L 3.696 6.468 L 2.772 6.468 Z" fill="#E99A3B"></path><path d="M 2.772 7.392 L 3.696 7.392 L 3.696 8.316 L 2.772 8.316 Z" fill="#E99A3B"></path><path d="M 2.772 8.316 L 3.696 8.316 L 3.696 9.24 L 2.772 9.24 Z" fill="#E99A3B"></path><path d="M 2.772 9.24 L 3.696 9.24 L 3.696 10.164 L 2.772 10.164 Z" fill="#E99A3B"></path><path d="M 2.772 10.164 L 3.696 10.164 L 3.696 11.088 L 2.772 11.088 Z" fill="#E99A3B"></path><path d="M 2.772 12.012 L 3.696 12.012 L 3.696 12.936 L 2.772 12.936 Z" fill="#E99A3B"></path><path d="M 2.772 14.784 L 3.696 14.784 L 3.696 15.708 L 2.772 15.708 Z" fill="#E99A3B"></path><path d="M 2.772 16.632 L 3.696 16.632 L 3.696 17.556 L 2.772 17.556 Z" fill="#E99A3B"></path><path d="M 2.772 18.48 L 3.696 18.48 L 3.696 19.404 L 2.772 19.404 Z" fill="#E99A3B"></path><path d="M 2.772 19.404 L 3.696 19.404 L 3.696 20.328 L 2.772 20.328 Z" fill="#E99A3B"></path><path d="M 2.772 20.328 L 3.696 20.328 L 3.696 21.252 L 2.772 21.252 Z" fill="#E99A3B"></path><path d="M 2.772 22.176 L 3.696 22.176 L 3.696 23.1 L 2.772 23.1 Z" fill="#E99A3B"></path><path d="M 3.696 0 L 4.62 0 L 4.62 0.924 L 3.696 0.924 Z" fill="#E99A3B"></path><path d="M 3.696 1.848 L 4.62 1.848 L 4.62 2.772 L 3.696 2.772 Z" fill="#E99A3B"></path><path d="M 3.696 2.772 L 4.62 2.772 L 4.62 3.696 L 3.696 3.696 Z" fill="#E99A3B"></path><path d="M 3.696 3.696 L 4.62 3.696 L 4.62 4.62 L 3.696 4.62 Z" fill="#E99A3B"></path><path d="M 3.696 5.544 L 4.62 5.544 L 4.62 6.468 L 3.696 6.468 Z" fill="#E99A3B"></path><path d="M 3.696 7.392 L 4.62 7.392 L 4.62 8.316 L 3.696 8.316 Z" fill="#E99A3B"></path><path d="M 3.696 11.088 L 4.62 11.088 L 4.62 12.012 L 3.696 12.012 Z" fill="#E99A3B"></path><path d="M 3.696 12.012 L 4.62 12.012 L 4.62 12.936 L 3.696 12.936 Z" fill="#E99A3B"></path><path d="M 3.696 13.86 L 4.62 13.86 L 4.62 14.784 L 3.696 14.784 Z" fill="#E99A3B"></path><path d="M 3.696 14.784 L 4.62 14.784 L 4.62 15.708 L 3.696 15.708 Z" fill="#E99A3B"></path><path d="M 3.696 16.632 L 4.62 16.632 L 4.62 17.556 L 3.696 17.556 Z" fill="#E99A3B"></path><path d="M 3.696 18.48 L 4.62 18.48 L 4.62 19.404 L 3.696 19.404 Z" fill="#E99A3B"></path><path d="M 3.696 19.404 L 4.62 19.404 L 4.62 20.328 L 3.696 20.328 Z" fill="#E99A3B"></path><path d="M 3.696 20.328 L 4.62 20.328 L 4.62 21.252 L 3.696 21.252 Z" fill="#E99A3B"></path><path d="M 3.696 22.176 L 4.62 22.176 L 4.62 23.1 L 3.696 23.1 Z" fill="#E99A3B"></path><path d="M 4.62 0 L 5.544 0 L 5.544 0.924 L 4.62 0.924 Z" fill="#E99A3B"></path><path d="M 4.62 5.544 L 5.544 5.544 L 5.544 6.468 L 4.62 6.468 Z" fill="#E99A3B"></path><path d="M 4.62 7.392 L 5.544 7.392 L 5.544 8.316 L 4.62 8.316 Z" fill="#E99A3B"></path><path d="M 4.62 11.088 L 5.544 11.088 L 5.544 12.012 L 4.62 12.012 Z" fill="#E99A3B"></path><path d="M 4.62 16.632 L 5.544 16.632 L 5.544 17.556 L 4.62 17.556 Z" fill="#E99A3B"></path><path d="M 4.62 22.176 L 5.544 22.176 L 5.544 23.1 L 4.62 23.1 Z" fill="#E99A3B"></path><path d="M 5.544 0 L 6.468 0 L 6.468 0.924 L 5.544 0.924 Z" fill="#E99A3B"></path><path d="M 5.544 0.924 L 6.468 0.924 L 6.468 1.848 L 5.544 1.848 Z" fill="#E99A3B"></path><path d="M 5.544 1.848 L 6.468 1.848 L 6.468 2.772 L 5.544 2.772 Z" fill="#E99A3B"></path><path d="M 5.544 2.772 L 6.468 2.772 L 6.468 3.696 L 5.544 3.696 Z" fill="#E99A3B"></path><path d="M 5.544 3.696 L 6.468 3.696 L 6.468 4.62 L 5.544 4.62 Z" fill="#E99A3B"></path><path d="M 5.544 4.62 L 6.468 4.62 L 6.468 5.544 L 5.544 5.544 Z" fill="#E99A3B"></path><path d="M 5.544 5.544 L 6.468 5.544 L 6.468 6.468 L 5.544 6.468 Z" fill="#E99A3B"></path><path d="M 5.544 7.392 L 6.468 7.392 L 6.468 8.316 L 5.544 8.316 Z" fill="#E99A3B"></path><path d="M 5.544 9.24 L 6.468 9.24 L 6.468 10.164 L 5.544 10.164 Z" fill="#E99A3B"></path><path d="M 5.544 11.088 L 6.468 11.088 L 6.468 12.012 L 5.544 12.012 Z" fill="#E99A3B"></path><path d="M 5.544 12.936 L 6.468 12.936 L 6.468 13.86 L 5.544 13.86 Z" fill="#E99A3B"></path><path d="M 5.544 14.784 L 6.468 14.784 L 6.468 15.708 L 5.544 15.708 Z" fill="#E99A3B"></path><path d="M 5.544 16.632 L 6.468 16.632 L 6.468 17.556 L 5.544 17.556 Z" fill="#E99A3B"></path><path d="M 5.544 17.556 L 6.468 17.556 L 6.468 18.48 L 5.544 18.48 Z" fill="#E99A3B"></path><path d="M 5.544 18.48 L 6.468 18.48 L 6.468 19.404 L 5.544 19.404 Z" fill="#E99A3B"></path><path d="M 5.544 19.404 L 6.468 19.404 L 6.468 20.328 L 5.544 20.328 Z" fill="#E99A3B"></path><path d="M 5.544 20.328 L 6.468 20.328 L 6.468 21.252 L 5.544 21.252 Z" fill="#E99A3B"></path><path d="M 5.544 21.252 L 6.468 21.252 L 6.468 22.176 L 5.544 22.176 Z" fill="#E99A3B"></path><path d="M 5.544 22.176 L 6.468 22.176 L 6.468 23.1 L 5.544 23.1 Z" fill="#E99A3B"></path><path d="M 6.468 8.316 L 7.392 8.316 L 7.392 9.24 L 6.468 9.24 Z" fill="#E99A3B"></path><path d="M 6.468 10.164 L 7.392 10.164 L 7.392 11.088 L 6.468 11.088 Z" fill="#E99A3B"></path><path d="M 6.468 11.088 L 7.392 11.088 L 7.392 12.012 L 6.468 12.012 Z" fill="#E99A3B"></path><path d="M 6.468 12.936 L 7.392 12.936 L 7.392 13.86 L 6.468 13.86 Z" fill="#E99A3B"></path><path d="M 6.468 14.784 L 7.392 14.784 L 7.392 15.708 L 6.468 15.708 Z" fill="#E99A3B"></path><path d="M 7.392 0.924 L 8.316 0.924 L 8.316 1.848 L 7.392 1.848 Z" fill="#E99A3B"></path><path d="M 7.392 2.772 L 8.316 2.772 L 8.316 3.696 L 7.392 3.696 Z" fill="#E99A3B"></path><path d="M 7.392 3.696 L 8.316 3.696 L 8.316 4.62 L 7.392 4.62 Z" fill="#E99A3B"></path><path d="M 7.392 5.544 L 8.316 5.544 L 8.316 6.468 L 7.392 6.468 Z" fill="#E99A3B"></path><path d="M 7.392 6.468 L 8.316 6.468 L 8.316 7.392 L 7.392 7.392 Z" fill="#E99A3B"></path><path d="M 7.392 7.392 L 8.316 7.392 L 8.316 8.316 L 7.392 8.316 Z" fill="#E99A3B"></path><path d="M 7.392 8.316 L 8.316 8.316 L 8.316 9.24 L 7.392 9.24 Z" fill="#E99A3B"></path><path d="M 7.392 9.24 L 8.316 9.24 L 8.316 10.164 L 7.392 10.164 Z" fill="#E99A3B"></path><path d="M 7.392 10.164 L 8.316 10.164 L 8.316 11.088 L 7.392 11.088 Z" fill="#E99A3B"></path><path d="M 7.392 11.088 L 8.316 11.088 L 8.316 12.012 L 7.392 12.012 Z" fill="#E99A3B"></path><path d="M 7.392 12.936 L 8.316 12.936 L 8.316 13.86 L 7.392 13.86 Z" fill="#E99A3B"></path><path d="M 7.392 13.86 L 8.316 13.86 L 8.316 14.784 L 7.392 14.784 Z" fill="#E99A3B"></path><path d="M 7.392 14.784 L 8.316 14.784 L 8.316 15.708 L 7.392 15.708 Z" fill="#E99A3B"></path><path d="M 7.392 15.708 L 8.316 15.708 L 8.316 16.632 L 7.392 16.632 Z" fill="#E99A3B"></path><path d="M 7.392 17.556 L 8.316 17.556 L 8.316 18.48 L 7.392 18.48 Z" fill="#E99A3B"></path><path d="M 7.392 18.48 L 8.316 18.48 L 8.316 19.404 L 7.392 19.404 Z" fill="#E99A3B"></path><path d="M 7.392 19.404 L 8.316 19.404 L 8.316 20.328 L 7.392 20.328 Z" fill="#E99A3B"></path><path d="M 7.392 21.252 L 8.316 21.252 L 8.316 22.176 L 7.392 22.176 Z" fill="#E99A3B"></path><path d="M 8.316 0 L 9.24 0 L 9.24 0.924 L 8.316 0.924 Z" fill="#E99A3B"></path><path d="M 8.316 1.848 L 9.24 1.848 L 9.24 2.772 L 8.316 2.772 Z" fill="#E99A3B"></path><path d="M 8.316 2.772 L 9.24 2.772 L 9.24 3.696 L 8.316 3.696 Z" fill="#E99A3B"></path><path d="M 8.316 4.62 L 9.24 4.62 L 9.24 5.544 L 8.316 5.544 Z" fill="#E99A3B"></path><path d="M 8.316 7.392 L 9.24 7.392 L 9.24 8.316 L 8.316 8.316 Z" fill="#E99A3B"></path><path d="M 8.316 8.316 L 9.24 8.316 L 9.24 9.24 L 8.316 9.24 Z" fill="#E99A3B"></path><path d="M 8.316 10.164 L 9.24 10.164 L 9.24 11.088 L 8.316 11.088 Z" fill="#E99A3B"></path><path d="M 8.316 12.012 L 9.24 12.012 L 9.24 12.936 L 8.316 12.936 Z" fill="#E99A3B"></path><path d="M 8.316 14.784 L 9.24 14.784 L 9.24 15.708 L 8.316 15.708 Z" fill="#E99A3B"></path><path d="M 8.316 16.632 L 9.24 16.632 L 9.24 17.556 L 8.316 17.556 Z" fill="#E99A3B"></path><path d="M 8.316 17.556 L 9.24 17.556 L 9.24 18.48 L 8.316 18.48 Z" fill="#E99A3B"></path><path d="M 8.316 18.48 L 9.24 18.48 L 9.24 19.404 L 8.316 19.404 Z" fill="#E99A3B"></path><path d="M 8.316 19.404 L 9.24 19.404 L 9.24 20.328 L 8.316 20.328 Z" fill="#E99A3B"></path><path d="M 8.316 20.328 L 9.24 20.328 L 9.24 21.252 L 8.316 21.252 Z" fill="#E99A3B"></path><path d="M 9.24 2.772 L 10.164 2.772 L 10.164 3.696 L 9.24 3.696 Z" fill="#E99A3B"></path><path d="M 9.24 3.696 L 10.164 3.696 L 10.164 4.62 L 9.24 4.62 Z" fill="#E99A3B"></path><path d="M 9.24 4.62 L 10.164 4.62 L 10.164 5.544 L 9.24 5.544 Z" fill="#E99A3B"></path><path d="M 9.24 5.544 L 10.164 5.544 L 10.164 6.468 L 9.24 6.468 Z" fill="#E99A3B"></path><path d="M 9.24 8.316 L 10.164 8.316 L 10.164 9.24 L 9.24 9.24 Z" fill="#E99A3B"></path><path d="M 9.24 9.24 L 10.164 9.24 L 10.164 10.164 L 9.24 10.164 Z" fill="#E99A3B"></path><path d="M 9.24 10.164 L 10.164 10.164 L 10.164 11.088 L 9.24 11.088 Z" fill="#E99A3B"></path><path d="M 9.24 11.088 L 10.164 11.088 L 10.164 12.012 L 9.24 12.012 Z" fill="#E99A3B"></path><path d="M 9.24 12.936 L 10.164 12.936 L 10.164 13.86 L 9.24 13.86 Z" fill="#E99A3B"></path><path d="M 9.24 13.86 L 10.164 13.86 L 10.164 14.784 L 9.24 14.784 Z" fill="#E99A3B"></path><path d="M 9.24 14.784 L 10.164 14.784 L 10.164 15.708 L 9.24 15.708 Z" fill="#E99A3B"></path><path d="M 9.24 16.632 L 10.164 16.632 L 10.164 17.556 L 9.24 17.556 Z" fill="#E99A3B"></path><path d="M 9.24 17.556 L 10.164 17.556 L 10.164 18.48 L 9.24 18.48 Z" fill="#E99A3B"></path><path d="M 9.24 19.404 L 10.164 19.404 L 10.164 20.328 L 9.24 20.328 Z" fill="#E99A3B"></path><path d="M 9.24 20.328 L 10.164 20.328 L 10.164 21.252 L 9.24 21.252 Z" fill="#E99A3B"></path><path d="M 9.24 22.176 L 10.164 22.176 L 10.164 23.1 L 9.24 23.1 Z" fill="#E99A3B"></path><path d="M 10.164 4.62 L 11.088 4.62 L 11.088 5.544 L 10.164 5.544 Z" fill="#E99A3B"></path><path d="M 10.164 9.24 L 11.088 9.24 L 11.088 10.164 L 10.164 10.164 Z" fill="#E99A3B"></path><path d="M 10.164 11.088 L 11.088 11.088 L 11.088 12.012 L 10.164 12.012 Z" fill="#E99A3B"></path><path d="M 10.164 12.012 L 11.088 12.012 L 11.088 12.936 L 10.164 12.936 Z" fill="#E99A3B"></path><path d="M 10.164 16.632 L 11.088 16.632 L 11.088 17.556 L 10.164 17.556 Z" fill="#E99A3B"></path><path d="M 10.164 19.404 L 11.088 19.404 L 11.088 20.328 L 10.164 20.328 Z" fill="#E99A3B"></path><path d="M 10.164 20.328 L 11.088 20.328 L 11.088 21.252 L 10.164 21.252 Z" fill="#E99A3B"></path><path d="M 10.164 21.252 L 11.088 21.252 L 11.088 22.176 L 10.164 22.176 Z" fill="#E99A3B"></path><path d="M 10.164 22.176 L 11.088 22.176 L 11.088 23.1 L 10.164 23.1 Z" fill="#E99A3B"></path><path d="M 11.088 0.924 L 12.012 0.924 L 12.012 1.848 L 11.088 1.848 Z" fill="#E99A3B"></path><path d="M 11.088 1.848 L 12.012 1.848 L 12.012 2.772 L 11.088 2.772 Z" fill="#E99A3B"></path><path d="M 11.088 3.696 L 12.012 3.696 L 12.012 4.62 L 11.088 4.62 Z" fill="#E99A3B"></path><path d="M 11.088 5.544 L 12.012 5.544 L 12.012 6.468 L 11.088 6.468 Z" fill="#E99A3B"></path><path d="M 11.088 6.468 L 12.012 6.468 L 12.012 7.392 L 11.088 7.392 Z" fill="#E99A3B"></path><path d="M 11.088 7.392 L 12.012 7.392 L 12.012 8.316 L 11.088 8.316 Z" fill="#E99A3B"></path><path d="M 11.088 8.316 L 12.012 8.316 L 12.012 9.24 L 11.088 9.24 Z" fill="#E99A3B"></path><path d="M 11.088 9.24 L 12.012 9.24 L 12.012 10.164 L 11.088 10.164 Z" fill="#E99A3B"></path><path d="M 11.088 12.012 L 12.012 12.012 L 12.012 12.936 L 11.088 12.936 Z" fill="#E99A3B"></path><path d="M 11.088 12.936 L 12.012 12.936 L 12.012 13.86 L 11.088 13.86 Z" fill="#E99A3B"></path><path d="M 11.088 13.86 L 12.012 13.86 L 12.012 14.784 L 11.088 14.784 Z" fill="#E99A3B"></path><path d="M 11.088 14.784 L 12.012 14.784 L 12.012 15.708 L 11.088 15.708 Z" fill="#E99A3B"></path><path d="M 11.088 16.632 L 12.012 16.632 L 12.012 17.556 L 11.088 17.556 Z" fill="#E99A3B"></path><path d="M 11.088 18.48 L 12.012 18.48 L 12.012 19.404 L 11.088 19.404 Z" fill="#E99A3B"></path><path d="M 11.088 20.328 L 12.012 20.328 L 12.012 21.252 L 11.088 21.252 Z" fill="#E99A3B"></path><path d="M 11.088 21.252 L 12.012 21.252 L 12.012 22.176 L 11.088 22.176 Z" fill="#E99A3B"></path><path d="M 11.088 22.176 L 12.012 22.176 L 12.012 23.1 L 11.088 23.1 Z" fill="#E99A3B"></path><path d="M 12.012 0 L 12.936 0 L 12.936 0.924 L 12.012 0.924 Z" fill="#E99A3B"></path><path d="M 12.012 0.924 L 12.936 0.924 L 12.936 1.848 L 12.012 1.848 Z" fill="#E99A3B"></path><path d="M 12.012 1.848 L 12.936 1.848 L 12.936 2.772 L 12.012 2.772 Z" fill="#E99A3B"></path><path d="M 12.012 3.696 L 12.936 3.696 L 12.936 4.62 L 12.012 4.62 Z" fill="#E99A3B"></path><path d="M 12.012 4.62 L 12.936 4.62 L 12.936 5.544 L 12.012 5.544 Z" fill="#E99A3B"></path><path d="M 12.012 7.392 L 12.936 7.392 L 12.936 8.316 L 12.012 8.316 Z" fill="#E99A3B"></path><path d="M 12.012 11.088 L 12.936 11.088 L 12.936 12.012 L 12.012 12.012 Z" fill="#E99A3B"></path><path d="M 12.012 12.012 L 12.936 12.012 L 12.936 12.936 L 12.012 12.936 Z" fill="#E99A3B"></path><path d="M 12.012 12.936 L 12.936 12.936 L 12.936 13.86 L 12.012 13.86 Z" fill="#E99A3B"></path><path d="M 12.012 13.86 L 12.936 13.86 L 12.936 14.784 L 12.012 14.784 Z" fill="#E99A3B"></path><path d="M 12.012 16.632 L 12.936 16.632 L 12.936 17.556 L 12.012 17.556 Z" fill="#E99A3B"></path><path d="M 12.012 18.48 L 12.936 18.48 L 12.936 19.404 L 12.012 19.404 Z" fill="#E99A3B"></path><path d="M 12.012 20.328 L 12.936 20.328 L 12.936 21.252 L 12.012 21.252 Z" fill="#E99A3B"></path><path d="M 12.012 21.252 L 12.936 21.252 L 12.936 22.176 L 12.012 22.176 Z" fill="#E99A3B"></path><path d="M 12.012 22.176 L 12.936 22.176 L 12.936 23.1 L 12.012 23.1 Z" fill="#E99A3B"></path><path d="M 12.936 0 L 13.86 0 L 13.86 0.924 L 12.936 0.924 Z" fill="#E99A3B"></path><path d="M 12.936 0.924 L 13.86 0.924 L 13.86 1.848 L 12.936 1.848 Z" fill="#E99A3B"></path><path d="M 12.936 1.848 L 13.86 1.848 L 13.86 2.772 L 12.936 2.772 Z" fill="#E99A3B"></path><path d="M 12.936 2.772 L 13.86 2.772 L 13.86 3.696 L 12.936 3.696 Z" fill="#E99A3B"></path><path d="M 12.936 4.62 L 13.86 4.62 L 13.86 5.544 L 12.936 5.544 Z" fill="#E99A3B"></path><path d="M 12.936 5.544 L 13.86 5.544 L 13.86 6.468 L 12.936 6.468 Z" fill="#E99A3B"></path><path d="M 12.936 6.468 L 13.86 6.468 L 13.86 7.392 L 12.936 7.392 Z" fill="#E99A3B"></path><path d="M 12.936 7.392 L 13.86 7.392 L 13.86 8.316 L 12.936 8.316 Z" fill="#E99A3B"></path><path d="M 12.936 8.316 L 13.86 8.316 L 13.86 9.24 L 12.936 9.24 Z" fill="#E99A3B"></path><path d="M 12.936 9.24 L 13.86 9.24 L 13.86 10.164 L 12.936 10.164 Z" fill="#E99A3B"></path><path d="M 12.936 10.164 L 13.86 10.164 L 13.86 11.088 L 12.936 11.088 Z" fill="#E99A3B"></path><path d="M 12.936 11.088 L 13.86 11.088 L 13.86 12.012 L 12.936 12.012 Z" fill="#E99A3B"></path><path d="M 12.936 12.936 L 13.86 12.936 L 13.86 13.86 L 12.936 13.86 Z" fill="#E99A3B"></path><path d="M 12.936 13.86 L 13.86 13.86 L 13.86 14.784 L 12.936 14.784 Z" fill="#E99A3B"></path><path d="M 12.936 15.708 L 13.86 15.708 L 13.86 16.632 L 12.936 16.632 Z" fill="#E99A3B"></path><path d="M 12.936 16.632 L 13.86 16.632 L 13.86 17.556 L 12.936 17.556 Z" fill="#E99A3B"></path><path d="M 12.936 17.556 L 13.86 17.556 L 13.86 18.48 L 12.936 18.48 Z" fill="#E99A3B"></path><path d="M 12.936 20.328 L 13.86 20.328 L 13.86 21.252 L 12.936 21.252 Z" fill="#E99A3B"></path><path d="M 12.936 21.252 L 13.86 21.252 L 13.86 22.176 L 12.936 22.176 Z" fill="#E99A3B"></path><path d="M 13.86 0 L 14.784 0 L 14.784 0.924 L 13.86 0.924 Z" fill="#E99A3B"></path><path d="M 13.86 0.924 L 14.784 0.924 L 14.784 1.848 L 13.86 1.848 Z" fill="#E99A3B"></path><path d="M 13.86 2.772 L 14.784 2.772 L 14.784 3.696 L 13.86 3.696 Z" fill="#E99A3B"></path><path d="M 13.86 3.696 L 14.784 3.696 L 14.784 4.62 L 13.86 4.62 Z" fill="#E99A3B"></path><path d="M 13.86 7.392 L 14.784 7.392 L 14.784 8.316 L 13.86 8.316 Z" fill="#E99A3B"></path><path d="M 13.86 10.164 L 14.784 10.164 L 14.784 11.088 L 13.86 11.088 Z" fill="#E99A3B"></path><path d="M 13.86 12.936 L 14.784 12.936 L 14.784 13.86 L 13.86 13.86 Z" fill="#E99A3B"></path><path d="M 13.86 14.784 L 14.784 14.784 L 14.784 15.708 L 13.86 15.708 Z" fill="#E99A3B"></path><path d="M 13.86 17.556 L 14.784 17.556 L 14.784 18.48 L 13.86 18.48 Z" fill="#E99A3B"></path><path d="M 13.86 18.48 L 14.784 18.48 L 14.784 19.404 L 13.86 19.404 Z" fill="#E99A3B"></path><path d="M 13.86 19.404 L 14.784 19.404 L 14.784 20.328 L 13.86 20.328 Z" fill="#E99A3B"></path><path d="M 14.784 5.544 L 15.708 5.544 L 15.708 6.468 L 14.784 6.468 Z" fill="#E99A3B"></path><path d="M 14.784 7.392 L 15.708 7.392 L 15.708 8.316 L 14.784 8.316 Z" fill="#E99A3B"></path><path d="M 14.784 11.088 L 15.708 11.088 L 15.708 12.012 L 14.784 12.012 Z" fill="#E99A3B"></path><path d="M 14.784 14.784 L 15.708 14.784 L 15.708 15.708 L 14.784 15.708 Z" fill="#E99A3B"></path><path d="M 14.784 15.708 L 15.708 15.708 L 15.708 16.632 L 14.784 16.632 Z" fill="#E99A3B"></path><path d="M 14.784 16.632 L 15.708 16.632 L 15.708 17.556 L 14.784 17.556 Z" fill="#E99A3B"></path><path d="M 14.784 17.556 L 15.708 17.556 L 15.708 18.48 L 14.784 18.48 Z" fill="#E99A3B"></path><path d="M 14.784 18.48 L 15.708 18.48 L 15.708 19.404 L 14.784 19.404 Z" fill="#E99A3B"></path><path d="M 14.784 19.404 L 15.708 19.404 L 15.708 20.328 L 14.784 20.328 Z" fill="#E99A3B"></path><path d="M 14.784 20.328 L 15.708 20.328 L 15.708 21.252 L 14.784 21.252 Z" fill="#E99A3B"></path><path d="M 14.784 22.176 L 15.708 22.176 L 15.708 23.1 L 14.784 23.1 Z" fill="#E99A3B"></path><path d="M 15.708 7.392 L 16.632 7.392 L 16.632 8.316 L 15.708 8.316 Z" fill="#E99A3B"></path><path d="M 15.708 9.24 L 16.632 9.24 L 16.632 10.164 L 15.708 10.164 Z" fill="#E99A3B"></path><path d="M 15.708 12.012 L 16.632 12.012 L 16.632 12.936 L 15.708 12.936 Z" fill="#E99A3B"></path><path d="M 15.708 12.936 L 16.632 12.936 L 16.632 13.86 L 15.708 13.86 Z" fill="#E99A3B"></path><path d="M 15.708 14.784 L 16.632 14.784 L 16.632 15.708 L 15.708 15.708 Z" fill="#E99A3B"></path><path d="M 15.708 18.48 L 16.632 18.48 L 16.632 19.404 L 15.708 19.404 Z" fill="#E99A3B"></path><path d="M 15.708 20.328 L 16.632 20.328 L 16.632 21.252 L 15.708 21.252 Z" fill="#E99A3B"></path><path d="M 15.708 22.176 L 16.632 22.176 L 16.632 23.1 L 15.708 23.1 Z" fill="#E99A3B"></path><path d="M 16.632 0 L 17.556 0 L 17.556 0.924 L 16.632 0.924 Z" fill="#E99A3B"></path><path d="M 16.632 0.924 L 17.556 0.924 L 17.556 1.848 L 16.632 1.848 Z" fill="#E99A3B"></path><path d="M 16.632 1.848 L 17.556 1.848 L 17.556 2.772 L 16.632 2.772 Z" fill="#E99A3B"></path><path d="M 16.632 2.772 L 17.556 2.772 L 17.556 3.696 L 16.632 3.696 Z" fill="#E99A3B"></path><path d="M 16.632 3.696 L 17.556 3.696 L 17.556 4.62 L 16.632 4.62 Z" fill="#E99A3B"></path><path d="M 16.632 4.62 L 17.556 4.62 L 17.556 5.544 L 16.632 5.544 Z" fill="#E99A3B"></path><path d="M 16.632 5.544 L 17.556 5.544 L 17.556 6.468 L 16.632 6.468 Z" fill="#E99A3B"></path><path d="M 16.632 7.392 L 17.556 7.392 L 17.556 8.316 L 16.632 8.316 Z" fill="#E99A3B"></path><path d="M 16.632 9.24 L 17.556 9.24 L 17.556 10.164 L 16.632 10.164 Z" fill="#E99A3B"></path><path d="M 16.632 11.088 L 17.556 11.088 L 17.556 12.012 L 16.632 12.012 Z" fill="#E99A3B"></path><path d="M 16.632 12.936 L 17.556 12.936 L 17.556 13.86 L 16.632 13.86 Z" fill="#E99A3B"></path><path d="M 16.632 13.86 L 17.556 13.86 L 17.556 14.784 L 16.632 14.784 Z" fill="#E99A3B"></path><path d="M 16.632 14.784 L 17.556 14.784 L 17.556 15.708 L 16.632 15.708 Z" fill="#E99A3B"></path><path d="M 16.632 16.632 L 17.556 16.632 L 17.556 17.556 L 16.632 17.556 Z" fill="#E99A3B"></path><path d="M 16.632 18.48 L 17.556 18.48 L 17.556 19.404 L 16.632 19.404 Z" fill="#E99A3B"></path><path d="M 16.632 19.404 L 17.556 19.404 L 17.556 20.328 L 16.632 20.328 Z" fill="#E99A3B"></path><path d="M 17.556 0 L 18.48 0 L 18.48 0.924 L 17.556 0.924 Z" fill="#E99A3B"></path><path d="M 17.556 5.544 L 18.48 5.544 L 18.48 6.468 L 17.556 6.468 Z" fill="#E99A3B"></path><path d="M 17.556 8.316 L 18.48 8.316 L 18.48 9.24 L 17.556 9.24 Z" fill="#E99A3B"></path><path d="M 17.556 9.24 L 18.48 9.24 L 18.48 10.164 L 17.556 10.164 Z" fill="#E99A3B"></path><path d="M 17.556 10.164 L 18.48 10.164 L 18.48 11.088 L 17.556 11.088 Z" fill="#E99A3B"></path><path d="M 17.556 11.088 L 18.48 11.088 L 18.48 12.012 L 17.556 12.012 Z" fill="#E99A3B"></path><path d="M 17.556 12.936 L 18.48 12.936 L 18.48 13.86 L 17.556 13.86 Z" fill="#E99A3B"></path><path d="M 17.556 13.86 L 18.48 13.86 L 18.48 14.784 L 17.556 14.784 Z" fill="#E99A3B"></path><path d="M 17.556 14.784 L 18.48 14.784 L 18.48 15.708 L 17.556 15.708 Z" fill="#E99A3B"></path><path d="M 17.556 18.48 L 18.48 18.48 L 18.48 19.404 L 17.556 19.404 Z" fill="#E99A3B"></path><path d="M 17.556 20.328 L 18.48 20.328 L 18.48 21.252 L 17.556 21.252 Z" fill="#E99A3B"></path><path d="M 18.48 0 L 19.404 0 L 19.404 0.924 L 18.48 0.924 Z" fill="#E99A3B"></path><path d="M 18.48 1.848 L 19.404 1.848 L 19.404 2.772 L 18.48 2.772 Z" fill="#E99A3B"></path><path d="M 18.48 2.772 L 19.404 2.772 L 19.404 3.696 L 18.48 3.696 Z" fill="#E99A3B"></path><path d="M 18.48 3.696 L 19.404 3.696 L 19.404 4.62 L 18.48 4.62 Z" fill="#E99A3B"></path><path d="M 18.48 5.544 L 19.404 5.544 L 19.404 6.468 L 18.48 6.468 Z" fill="#E99A3B"></path><path d="M 18.48 7.392 L 19.404 7.392 L 19.404 8.316 L 18.48 8.316 Z" fill="#E99A3B"></path><path d="M 18.48 8.316 L 19.404 8.316 L 19.404 9.24 L 18.48 9.24 Z" fill="#E99A3B"></path><path d="M 18.48 9.24 L 19.404 9.24 L 19.404 10.164 L 18.48 10.164 Z" fill="#E99A3B"></path><path d="M 18.48 12.012 L 19.404 12.012 L 19.404 12.936 L 18.48 12.936 Z" fill="#E99A3B"></path><path d="M 18.48 12.936 L 19.404 12.936 L 19.404 13.86 L 18.48 13.86 Z" fill="#E99A3B"></path><path d="M 18.48 14.784 L 19.404 14.784 L 19.404 15.708 L 18.48 15.708 Z" fill="#E99A3B"></path><path d="M 18.48 15.708 L 19.404 15.708 L 19.404 16.632 L 18.48 16.632 Z" fill="#E99A3B"></path><path d="M 18.48 16.632 L 19.404 16.632 L 19.404 17.556 L 18.48 17.556 Z" fill="#E99A3B"></path><path d="M 18.48 17.556 L 19.404 17.556 L 19.404 18.48 L 18.48 18.48 Z" fill="#E99A3B"></path><path d="M 18.48 18.48 L 19.404 18.48 L 19.404 19.404 L 18.48 19.404 Z" fill="#E99A3B"></path><path d="M 18.48 20.328 L 19.404 20.328 L 19.404 21.252 L 18.48 21.252 Z" fill="#E99A3B"></path><path d="M 18.48 21.252 L 19.404 21.252 L 19.404 22.176 L 18.48 22.176 Z" fill="#E99A3B"></path><path d="M 19.404 0 L 20.328 0 L 20.328 0.924 L 19.404 0.924 Z" fill="#E99A3B"></path><path d="M 19.404 1.848 L 20.328 1.848 L 20.328 2.772 L 19.404 2.772 Z" fill="#E99A3B"></path><path d="M 19.404 2.772 L 20.328 2.772 L 20.328 3.696 L 19.404 3.696 Z" fill="#E99A3B"></path><path d="M 19.404 3.696 L 20.328 3.696 L 20.328 4.62 L 19.404 4.62 Z" fill="#E99A3B"></path><path d="M 19.404 5.544 L 20.328 5.544 L 20.328 6.468 L 19.404 6.468 Z" fill="#E99A3B"></path><path d="M 19.404 7.392 L 20.328 7.392 L 20.328 8.316 L 19.404 8.316 Z" fill="#E99A3B"></path><path d="M 19.404 8.316 L 20.328 8.316 L 20.328 9.24 L 19.404 9.24 Z" fill="#E99A3B"></path><path d="M 19.404 11.088 L 20.328 11.088 L 20.328 12.012 L 19.404 12.012 Z" fill="#E99A3B"></path><path d="M 19.404 12.012 L 20.328 12.012 L 20.328 12.936 L 19.404 12.936 Z" fill="#E99A3B"></path><path d="M 19.404 12.936 L 20.328 12.936 L 20.328 13.86 L 19.404 13.86 Z" fill="#E99A3B"></path><path d="M 19.404 13.86 L 20.328 13.86 L 20.328 14.784 L 19.404 14.784 Z" fill="#E99A3B"></path><path d="M 19.404 14.784 L 20.328 14.784 L 20.328 15.708 L 19.404 15.708 Z" fill="#E99A3B"></path><path d="M 19.404 17.556 L 20.328 17.556 L 20.328 18.48 L 19.404 18.48 Z" fill="#E99A3B"></path><path d="M 19.404 18.48 L 20.328 18.48 L 20.328 19.404 L 19.404 19.404 Z" fill="#E99A3B"></path><path d="M 19.404 19.404 L 20.328 19.404 L 20.328 20.328 L 19.404 20.328 Z" fill="#E99A3B"></path><path d="M 19.404 21.252 L 20.328 21.252 L 20.328 22.176 L 19.404 22.176 Z" fill="#E99A3B"></path><path d="M 19.404 22.176 L 20.328 22.176 L 20.328 23.1 L 19.404 23.1 Z" fill="#E99A3B"></path><path d="M 20.328 0 L 21.252 0 L 21.252 0.924 L 20.328 0.924 Z" fill="#E99A3B"></path><path d="M 20.328 1.848 L 21.252 1.848 L 21.252 2.772 L 20.328 2.772 Z" fill="#E99A3B"></path><path d="M 20.328 2.772 L 21.252 2.772 L 21.252 3.696 L 20.328 3.696 Z" fill="#E99A3B"></path><path d="M 20.328 3.696 L 21.252 3.696 L 21.252 4.62 L 20.328 4.62 Z" fill="#E99A3B"></path><path d="M 20.328 5.544 L 21.252 5.544 L 21.252 6.468 L 20.328 6.468 Z" fill="#E99A3B"></path><path d="M 20.328 8.316 L 21.252 8.316 L 21.252 9.24 L 20.328 9.24 Z" fill="#E99A3B"></path><path d="M 20.328 9.24 L 21.252 9.24 L 21.252 10.164 L 20.328 10.164 Z" fill="#E99A3B"></path><path d="M 20.328 10.164 L 21.252 10.164 L 21.252 11.088 L 20.328 11.088 Z" fill="#E99A3B"></path><path d="M 20.328 12.012 L 21.252 12.012 L 21.252 12.936 L 20.328 12.936 Z" fill="#E99A3B"></path><path d="M 20.328 13.86 L 21.252 13.86 L 21.252 14.784 L 20.328 14.784 Z" fill="#E99A3B"></path><path d="M 20.328 14.784 L 21.252 14.784 L 21.252 15.708 L 20.328 15.708 Z" fill="#E99A3B"></path><path d="M 20.328 15.708 L 21.252 15.708 L 21.252 16.632 L 20.328 16.632 Z" fill="#E99A3B"></path><path d="M 20.328 20.328 L 21.252 20.328 L 21.252 21.252 L 20.328 21.252 Z" fill="#E99A3B"></path><path d="M 20.328 21.252 L 21.252 21.252 L 21.252 22.176 L 20.328 22.176 Z" fill="#E99A3B"></path><path d="M 21.252 0 L 22.176 0 L 22.176 0.924 L 21.252 0.924 Z" fill="#E99A3B"></path><path d="M 21.252 5.544 L 22.176 5.544 L 22.176 6.468 L 21.252 6.468 Z" fill="#E99A3B"></path><path d="M 21.252 7.392 L 22.176 7.392 L 22.176 8.316 L 21.252 8.316 Z" fill="#E99A3B"></path><path d="M 21.252 8.316 L 22.176 8.316 L 22.176 9.24 L 21.252 9.24 Z" fill="#E99A3B"></path><path d="M 21.252 12.012 L 22.176 12.012 L 22.176 12.936 L 21.252 12.936 Z" fill="#E99A3B"></path><path d="M 21.252 12.936 L 22.176 12.936 L 22.176 13.86 L 21.252 13.86 Z" fill="#E99A3B"></path><path d="M 21.252 13.86 L 22.176 13.86 L 22.176 14.784 L 21.252 14.784 Z" fill="#E99A3B"></path><path d="M 21.252 18.48 L 22.176 18.48 L 22.176 19.404 L 21.252 19.404 Z" fill="#E99A3B"></path><path d="M 21.252 20.328 L 22.176 20.328 L 22.176 21.252 L 21.252 21.252 Z" fill="#E99A3B"></path><path d="M 21.252 21.252 L 22.176 21.252 L 22.176 22.176 L 21.252 22.176 Z" fill="#E99A3B"></path><path d="M 22.176 0 L 23.1 0 L 23.1 0.924 L 22.176 0.924 Z" fill="#E99A3B"></path><path d="M 22.176 0.924 L 23.1 0.924 L 23.1 1.848 L 22.176 1.848 Z" fill="#E99A3B"></path><path d="M 22.176 1.848 L 23.1 1.848 L 23.1 2.772 L 22.176 2.772 Z" fill="#E99A3B"></path><path d="M 22.176 2.772 L 23.1 2.772 L 23.1 3.696 L 22.176 3.696 Z" fill="#E99A3B"></path><path d="M 22.176 3.696 L 23.1 3.696 L 23.1 4.62 L 22.176 4.62 Z" fill="#E99A3B"></path><path d="M 22.176 4.62 L 23.1 4.62 L 23.1 5.544 L 22.176 5.544 Z" fill="#E99A3B"></path><path d="M 22.176 5.544 L 23.1 5.544 L 23.1 6.468 L 22.176 6.468 Z" fill="#E99A3B"></path><path d="M 22.176 9.24 L 23.1 9.24 L 23.1 10.164 L 22.176 10.164 Z" fill="#E99A3B"></path><path d="M 22.176 11.088 L 23.1 11.088 L 23.1 12.012 L 22.176 12.012 Z" fill="#E99A3B"></path><path d="M 22.176 12.936 L 23.1 12.936 L 23.1 13.86 L 22.176 13.86 Z" fill="#E99A3B"></path><path d="M 22.176 14.784 L 23.1 14.784 L 23.1 15.708 L 22.176 15.708 Z" fill="#E99A3B"></path><path d="M 22.176 16.632 L 23.1 16.632 L 23.1 17.556 L 22.176 17.556 Z" fill="#E99A3B"></path><path d="M 22.176 19.404 L 23.1 19.404 L 23.1 20.328 L 22.176 20.328 Z" fill="#E99A3B"></path><path d="M 22.176 20.328 L 23.1 20.328 L 23.1 21.252 L 22.176 21.252 Z" fill="#E99A3B"></path><path d="M 22.176 21.252 L 23.1 21.252 L 23.1 22.176 L 22.176 22.176 Z" fill="#E99A3B"></path><path d="M 22.176 22.176 L 23.1 22.176 L 23.1 23.1 L 22.176 23.1 Z" fill="#E99A3B"></path></svg>