<?xml version="1.0" encoding="UTF-8"?>
<svg width="23px" height="23px" viewBox="0 0 23 23" version="1.1" xmlns="http://www.w3.org/2000/svg" xmlns:xlink="http://www.w3.org/1999/xlink">
    <defs></defs>
    <g id="Call-Center-Returning-User" stroke="none" stroke-width="1" fill="none" fill-rule="evenodd">
        <g id="6" transform="translate(-373.000000, -26.000000)" fill="#8B8D8C">
            <path d="M389.054688,40.121094 L395.5,46.566406 L393.566406,48.5 L387.179688,42.054688 L387.179688,41.058594 L386.769531,40.707031 C385.207031,42.035156 383.390625,42.699219 381.320312,42.699219 C379.015625,42.699219 377.052734,41.888672 375.431641,40.267578 C373.810547,38.646484 373,36.683594 373,34.378906 C373,32.074219 373.810547,30.101562 375.431641,28.460938 C377.052734,26.820312 378.996094,26 381.261719,26 C383.566406,26 385.529297,26.820312 387.150391,28.460938 C388.771484,30.101562 389.582031,32.074219 389.582031,34.378906 C389.582031,36.449219 388.917969,38.265625 387.589844,39.828125 L388,40.121094 L389.054688,40.121094 Z M381.320312,40.121094 C382.921875,40.121094 384.289062,39.564453 385.421875,38.451172 C386.554688,37.337891 387.121094,35.980469 387.121094,34.378906 C387.121094,32.777344 386.554688,31.410156 385.421875,30.277344 C384.289062,29.144531 382.921875,28.578125 381.320312,28.578125 C379.71875,28.578125 378.361328,29.144531 377.248047,30.277344 C376.134766,31.410156 375.578125,32.777344 375.578125,34.378906 C375.578125,35.980469 376.134766,37.337891 377.248047,38.451172 C378.361328,39.564453 379.71875,40.121094 381.320312,40.121094 Z" id="Shape"></path>
        </g>
    </g>
</svg>